<svg fill="#E86F54" height="50" width="45" version="1.1" id="Layer_1" xmlns="http://www.w3.org/2000/svg" viewBox="0 0 512 512" xml:space="preserve"><path d="M305.913 214.737c-13.476-13.476-33.594-16.36-49.914-8.652-16.321-7.71-36.437-4.825-49.913 8.652-17.146 17.145-17.146 45.043 0 62.188l49.913 49.914 49.914-49.913c17.146-17.145 17.146-45.043 0-62.189zm-24.549 37.641-25.365 25.364-25.365-25.364c-3.609-3.609-3.609-9.481 0-13.091a9.227 9.227 0 0 1 6.545-2.707 9.23 9.23 0 0 1 6.545 2.707l12.274 12.273 12.274-12.273c3.609-3.609 9.481-3.608 13.091-.001 3.611 3.609 3.611 9.482.001 13.092z"/><path d="m512 256-12.275-12.274c-26.624-26.625-59.548-43.199-94.016-49.738 19.751-28.996 31.311-63.996 31.311-101.648V74.981h-17.36c-37.652 0-72.654 11.561-101.65 31.312-6.537-34.47-23.113-67.393-49.736-94.018L255.999.001l-12.274 12.275C217.1 38.9 200.526 71.824 193.989 106.294c-28.996-19.751-63.997-31.312-101.65-31.312H74.981V92.34c0 37.652 11.561 72.652 31.311 101.648-34.469 6.537-67.393 23.113-94.016 49.738L0 256l12.275 12.274c26.624 26.625 59.548 43.199 94.018 49.736-19.751 28.996-31.311 63.997-31.311 101.65v17.359h17.359c37.652 0 72.654-11.561 101.65-31.311 6.537 34.469 23.113 67.393 49.736 94.016l12.274 12.275 12.274-12.275c26.625-26.624 43.199-59.548 49.736-94.018 28.996 19.751 63.997 31.312 101.65 31.312h17.359V419.66c0-37.652-11.561-72.654-31.311-101.65 34.469-6.537 67.393-23.113 94.016-49.736L512 256zM321.035 148.043c21.729-19.867 49.445-33.287 80.099-37.177-3.889 30.654-17.31 58.371-37.177 80.098-1.723.073-3.445.186-5.165.311a122.458 122.458 0 0 0-38.069-38.069c.125-1.719.239-3.44.312-5.163zM255.999 50.75c18.926 24.426 29.034 53.515 30.35 82.926a171.303 171.303 0 0 0-3.395 3.831 121.45 121.45 0 0 0-26.955-3.018c-9.261 0-18.282 1.046-26.955 3.018a178.88 178.88 0 0 0-3.395-3.831c1.316-29.412 11.426-58.5 30.35-82.926zm-65.034 97.293c.073 1.723.188 3.444.311 5.165a122.458 122.458 0 0 0-38.069 38.069 174.907 174.907 0 0 0-5.165-.311c-19.867-21.729-33.286-49.445-37.176-80.098 30.654 3.888 58.371 17.309 80.099 37.175zM50.749 256c24.426-18.926 53.515-29.034 82.926-30.35a171.303 171.303 0 0 0 3.831 3.395A121.443 121.443 0 0 0 134.488 256c0 9.261 1.046 18.282 3.018 26.955a178.88 178.88 0 0 0-3.831 3.395c-29.411-1.315-58.5-11.424-82.926-30.35zm140.216 107.958c-21.729 19.867-49.445 33.287-80.099 37.177 3.89-30.654 17.31-58.371 37.177-80.099 1.723-.073 3.444-.186 5.165-.311a122.458 122.458 0 0 0 38.069 38.069c-.125 1.72-.239 3.441-.312 5.164zm65.034 97.294c-18.926-24.426-29.034-53.515-30.35-82.926a171.303 171.303 0 0 0 3.395-3.831 121.443 121.443 0 0 0 26.955 3.018c9.261 0 18.282-1.046 26.955-3.018a178.88 178.88 0 0 0 3.395 3.831c-1.314 29.411-11.424 58.498-30.35 82.926zm0-118.458c-47.858 0-86.794-38.936-86.794-86.794s38.936-86.794 86.794-86.794 86.794 38.936 86.794 86.794-38.935 86.794-86.794 86.794zm65.036 21.164a171.551 171.551 0 0 0-.311-5.165 122.458 122.458 0 0 0 38.069-38.069c1.721.124 3.442.238 5.165.311 19.867 21.729 33.287 49.445 37.177 80.099-30.656-3.889-58.372-17.31-80.1-37.176zm57.288-77.607a171.303 171.303 0 0 0-3.831-3.395c1.972-8.672 3.018-17.694 3.018-26.955s-1.046-18.282-3.018-26.955a178.88 178.88 0 0 0 3.831-3.395c29.412 1.316 58.5 11.426 82.926 30.35-24.425 18.925-53.513 29.034-82.926 30.35z"/></svg>