<svg aria-hidden="true" style="width:0;height:0;position:absolute;overflow:hidden" xmlns="http://www.w3.org/2000/svg"><defs><symbol id="icon-tel" viewBox="0 0 32 32"><path d="m29.387 5.978-3.905-3.901a2.521 2.521 0 0 0-3.578 0l-4.206 4.198a2.52 2.52 0 0 0-.744 1.792v.001c0 .678.264 1.313.744 1.793l3.285 3.289a14.963 14.963 0 0 1-3.168 4.667 14.896 14.896 0 0 1-4.664 3.175l-3.285-3.289a2.521 2.521 0 0 0-1.789-.744h-.009c-.696 0-1.326.285-1.78.744l-4.209 4.198a2.52 2.52 0 0 0-.744 1.792c0 .678.264 1.312.744 1.793l3.901 3.901a4.39 4.39 0 0 0 3.087 1.279c.238 0 .469-.018.704-.059 4.855-.799 9.673-3.384 13.563-7.27 3.887-3.893 6.468-8.711 7.275-13.569a4.37 4.37 0 0 0-1.221-3.791zm-1.379 3.355c-.715 4.322-3.04 8.634-6.541 12.135s-7.81 5.826-12.133 6.541a1.724 1.724 0 0 1-1.496-.484l-3.832-3.831 4.063-4.066 4.426 4.432.792-.293c4.873-1.827 8.65-5.604 10.436-10.356l.04-.122.293-.792-4.429-4.425 4.063-4.066 3.832 3.831c.396.396.579.953.488 1.496z"/></symbol><symbol id="icon-instagram" viewBox="0 0 32 32"><path fill="none" stroke="#fff" style="stroke:var(--color1,#fff)" stroke-linejoin="round" stroke-linecap="round" stroke-width="2.286" d="M22.666 2.667H9.333a6.667 6.667 0 0 0-6.667 6.667v13.333a6.667 6.667 0 0 0 6.667 6.667h13.333a6.667 6.667 0 0 0 6.667-6.667V9.334a6.667 6.667 0 0 0-6.667-6.667z"/><path fill="none" stroke="#fff" style="stroke:var(--color1,#fff)" stroke-linejoin="round" stroke-linecap="round" stroke-width="2.286" d="M21.333 15.16a5.334 5.334 0 0 1-6.154 6.044l.031.004c-2.558-.423-4.486-2.619-4.486-5.265a5.333 5.333 0 0 1 10.605-.812l.004.03zm2.001-6.493h.013"/></symbol><symbol id="icon-facebook" viewBox="0 0 32 32"><path fill="none" stroke="#fff" style="stroke:var(--color1,#fff)" stroke-linejoin="round" stroke-linecap="round" stroke-width="2.286" d="M24 2.667h-4a6.667 6.667 0 0 0-6.667 6.667v4h-4v5.333h4v10.667h5.333V18.667h4l1.333-5.333h-5.333v-4s0 0 0 0c0-.736.597-1.333 1.333-1.333h4V2.668z"/></symbol></defs></svg>