<?xml version="1.0" encoding="iso-8859-1"?>
<!-- Uploaded to: SVG Repo, www.svgrepo.com, Generator: SVG Repo Mixer Tools -->
<svg fill="#E86F54" height="50px" width="45px" version="1.1" id="Layer_1" xmlns="http://www.w3.org/2000/svg" xmlns:xlink="http://www.w3.org/1999/xlink" 
	 viewBox="0 0 512 512" xml:space="preserve">
<g>
	<g>
		<path d="M305.913,214.737c-13.476-13.476-33.594-16.36-49.914-8.652c-16.321-7.71-36.437-4.825-49.913,8.652
			c-17.146,17.145-17.146,45.043,0,62.188l49.913,49.914l49.914-49.913C323.059,259.781,323.059,231.883,305.913,214.737z
			 M281.364,252.378l-25.365,25.364l-25.365-25.364c-3.609-3.609-3.609-9.481,0-13.091c1.804-1.804,4.174-2.707,6.545-2.707
			c2.37,0,4.741,0.903,6.545,2.707l12.274,12.273l12.274-12.273c3.609-3.609,9.481-3.608,13.091-0.001
			C284.974,242.895,284.974,248.768,281.364,252.378z"/>
	</g>
</g>
<g>
	<g>
		<path d="M512,256l-12.275-12.274c-26.624-26.625-59.548-43.199-94.016-49.738c19.751-28.996,31.311-63.996,31.311-101.648V74.981
			H419.66c-37.652,0-72.654,11.561-101.65,31.312c-6.537-34.47-23.113-67.393-49.736-94.018L255.999,0.001l-12.274,12.275
			c-26.625,26.624-43.199,59.548-49.736,94.018c-28.996-19.751-63.997-31.312-101.65-31.312H74.981V92.34
			c0,37.652,11.561,72.652,31.311,101.648c-34.469,6.537-67.393,23.113-94.016,49.738L0,256l12.275,12.274
			c26.624,26.625,59.548,43.199,94.018,49.736c-19.751,28.996-31.311,63.997-31.311,101.65v17.359h17.359
			c37.652,0,72.654-11.561,101.65-31.311c6.537,34.469,23.113,67.393,49.736,94.016l12.274,12.275l12.274-12.275
			c26.625-26.624,43.199-59.548,49.736-94.018c28.996,19.751,63.997,31.312,101.65,31.312h17.359V419.66
			c0-37.652-11.561-72.654-31.311-101.65c34.469-6.537,67.393-23.113,94.016-49.736L512,256z M321.035,148.043
			c21.729-19.867,49.445-33.287,80.099-37.177c-3.889,30.654-17.31,58.371-37.177,80.098c-1.723,0.073-3.445,0.186-5.165,0.311
			c-9.695-15.343-22.726-28.374-38.069-38.069C320.848,151.487,320.962,149.766,321.035,148.043z M255.999,50.75
			c18.926,24.426,29.034,53.515,30.35,82.926c-1.154,1.257-2.279,2.54-3.395,3.831c-8.672-1.972-17.694-3.018-26.955-3.018
			c-9.261,0-18.282,1.046-26.955,3.018c-1.117-1.29-2.242-2.574-3.395-3.831C226.965,104.264,237.075,75.176,255.999,50.75z
			 M190.965,148.043c0.073,1.723,0.188,3.444,0.311,5.165c-15.343,9.695-28.374,22.726-38.069,38.069
			c-1.721-0.124-3.442-0.238-5.165-0.311c-19.867-21.729-33.286-49.445-37.176-80.098
			C141.52,114.756,169.237,128.177,190.965,148.043z M50.749,256c24.426-18.926,53.515-29.034,82.926-30.35
			c1.257,1.154,2.54,2.279,3.831,3.395c-1.972,8.672-3.018,17.693-3.018,26.955c0,9.261,1.046,18.282,3.018,26.955
			c-1.29,1.117-2.574,2.242-3.831,3.395C104.264,285.035,75.175,274.926,50.749,256z M190.965,363.958
			c-21.729,19.867-49.445,33.287-80.099,37.177c3.89-30.654,17.31-58.371,37.177-80.099c1.723-0.073,3.444-0.186,5.165-0.311
			c9.695,15.343,22.726,28.374,38.069,38.069C191.152,360.514,191.038,362.235,190.965,363.958z M255.999,461.252
			c-18.926-24.426-29.034-53.515-30.35-82.926c1.154-1.257,2.279-2.54,3.395-3.831c8.672,1.972,17.693,3.018,26.955,3.018
			c9.261,0,18.282-1.046,26.955-3.018c1.117,1.29,2.242,2.574,3.395,3.831C285.035,407.737,274.925,436.824,255.999,461.252z
			 M255.999,342.794c-47.858,0-86.794-38.936-86.794-86.794s38.936-86.794,86.794-86.794c47.858,0,86.794,38.936,86.794,86.794
			C342.793,303.858,303.858,342.794,255.999,342.794z M321.035,363.958c-0.073-1.723-0.186-3.444-0.311-5.165
			c15.343-9.695,28.374-22.726,38.069-38.069c1.721,0.124,3.442,0.238,5.165,0.311c19.867,21.729,33.287,49.445,37.177,80.099
			C370.479,397.245,342.763,383.824,321.035,363.958z M378.323,286.351c-1.257-1.154-2.54-2.279-3.831-3.395
			c1.972-8.672,3.018-17.694,3.018-26.955s-1.046-18.282-3.018-26.955c1.29-1.117,2.574-2.242,3.831-3.395
			c29.412,1.316,58.5,11.426,82.926,30.35C436.824,274.926,407.736,285.035,378.323,286.351z"/>
	</g>
</g>
</svg>