<svg aria-hidden="true" style="position: absolute; width: 0; height: 0; overflow: hidden;" version="1.1" xmlns="http://www.w3.org/2000/svg" xmlns:xlink="http://www.w3.org/1999/xlink">
<defs>
<symbol id="icon-tel" viewBox="0 0 32 32">
<path d="M29.387 5.978l-3.905-3.901c-0.477-0.477-1.115-0.744-1.789-0.744s-1.313 0.264-1.789 0.744l-4.206 4.198c-0.46 0.458-0.744 1.092-0.744 1.792 0 0 0 0 0 0.001v-0c0 0.678 0.264 1.313 0.744 1.793l3.285 3.289c-0.79 1.813-1.858 3.361-3.168 4.667l-0 0c-1.346 1.353-2.919 2.42-4.664 3.175l-3.285-3.289c-0.477-0.477-1.115-0.744-1.789-0.744-0.003 0-0.006-0-0.009-0-0.696 0-1.326 0.285-1.78 0.744l-0 0-4.209 4.198c-0.46 0.458-0.744 1.092-0.744 1.792 0 0 0 0 0 0v-0c0 0.678 0.264 1.312 0.744 1.793l3.901 3.901c0.814 0.814 1.936 1.279 3.087 1.279 0.238 0 0.469-0.018 0.704-0.059 4.855-0.799 9.673-3.384 13.563-7.27 3.887-3.893 6.468-8.711 7.275-13.569 0.231-1.379-0.231-2.797-1.221-3.791zM28.008 9.333c-0.715 4.322-3.040 8.634-6.541 12.135s-7.81 5.826-12.133 6.541c-0.543 0.092-1.1-0.092-1.496-0.484l-3.832-3.831 4.063-4.066 4.426 4.432 0.792-0.293c4.873-1.827 8.65-5.604 10.436-10.356l0.040-0.122 0.293-0.792-4.429-4.425 4.063-4.066 3.832 3.831c0.396 0.396 0.579 0.953 0.488 1.496z"></path>
</symbol>
<symbol id="icon-instagram" viewBox="0 0 32 32">
<path fill="none" stroke="#fff" style="stroke: var(--color1, #fff)" stroke-linejoin="round" stroke-linecap="round" stroke-miterlimit="4" stroke-width="2.2857" d="M22.666 2.667h-13.333c-3.682 0-6.667 2.985-6.667 6.667v13.333c0 3.682 2.985 6.667 6.667 6.667h13.333c3.682 0 6.667-2.985 6.667-6.667v-13.333c0-3.682-2.985-6.667-6.667-6.667z"></path>
<path fill="none" stroke="#fff" style="stroke: var(--color1, #fff)" stroke-linejoin="round" stroke-linecap="round" stroke-miterlimit="4" stroke-width="2.2857" d="M21.333 15.16c0.037 0.235 0.058 0.506 0.058 0.782 0 2.946-2.388 5.334-5.334 5.334-0.299 0-0.592-0.025-0.878-0.072l0.031 0.004c-2.558-0.423-4.486-2.619-4.486-5.265 0-2.945 2.388-5.333 5.333-5.333 2.669 0 4.881 1.961 5.272 4.521l0.004 0.030zM23.334 8.667h0.013"></path>
</symbol>
<symbol id="icon-facebook" viewBox="0 0 32 32">
<path fill="none" stroke="#fff" style="stroke: var(--color1, #fff)" stroke-linejoin="round" stroke-linecap="round" stroke-miterlimit="4" stroke-width="2.2857" d="M24 2.667h-4c-3.682 0-6.667 2.985-6.667 6.667v0 4h-4v5.333h4v10.667h5.333v-10.667h4l1.333-5.333h-5.333v-4c0-0 0-0 0-0 0-0.736 0.597-1.333 1.333-1.333h4v-5.333z"></path>
</symbol>
</defs>
</svg>
